<svg width="54" height="54" viewBox="0 0 54 54" fill="none" xmlns="http://www.w3.org/2000/svg">
<path d="M37.6668 17C37.6668 15.8955 38.5623 15 39.6668 15C40.7714 15 41.6668 15.8955 41.6668 17V25.6667C41.6668 26.7712 40.7714 27.6667 39.6668 27.6667H32.3335C31.229 27.6667 30.3335 26.7712 30.3335 25.6667C30.3335 24.5622 31.229 23.6667 32.3335 23.6667H35.7215C34.3799 20.1585 30.9799 17.6667 27.0004 17.6667C24.0855 17.6667 21.5688 18.903 19.8717 20.9451C19.1657 21.7944 17.9047 21.911 17.0552 21.2048C16.2057 20.4988 16.0894 19.2379 16.7954 18.3884C19.256 15.4277 22.902 13.6667 27.0004 13.6667C31.3628 13.6667 35.2346 15.7609 37.6668 18.9988V17ZM16.3335 35V37C16.3335 38.1046 15.4381 39 14.3335 39C13.2289 39 12.3335 38.1046 12.3335 37V29C12.3335 27.8955 13.2289 27 14.3335 27H21.6668C22.7714 27 23.6668 27.8955 23.6668 29C23.6668 30.1046 22.7714 31 21.6668 31H18.5647C20.0631 34.1544 23.2794 36.3334 27.0004 36.3334C29.8554 36.3334 32.4316 35.0544 34.1431 33.0414C34.8586 32.1998 36.1207 32.0974 36.9623 32.8128C37.8039 33.5283 37.906 34.7904 37.1906 35.632C34.7444 38.5094 31.0674 40.3334 27.0004 40.3334C22.637 40.3334 18.7653 38.2382 16.3335 35ZM27.0002 0.333374C12.2726 0.333374 0.333496 12.2724 0.333496 27C0.333496 41.7275 12.2726 53.6667 27.0002 53.6667C41.7276 53.6667 53.6668 41.7275 53.6668 27C53.6668 12.2724 41.7276 0.333374 27.0002 0.333374ZM49.6668 27C49.6668 39.5184 39.5186 49.6667 27.0002 49.6667C14.4817 49.6667 4.3335 39.5184 4.3335 27C4.3335 14.4816 14.4817 4.33337 27.0002 4.33337C39.5186 4.33337 49.6668 14.4816 49.6668 27Z" fill="#679CF3"/>
</svg>
